<svg style="position: absolute; width: 0; height: 0; overflow: hidden;" aria-hidden="true" version="1.1"
    xmlns="http://www.w3.org/2000/svg" xmlns:xlink="http://www.w3.org/1999/xlink">
    <defs>
        <symbol id="feature-icon-1" viewBox="0 0 60 64" fill="currentColor">
            <path
                d="M59.4048 44.1952 42.5184 27.1851l1.8741-9.231c0.4836 0.1888 0.9978 0.2875 1.5168 0.2912h0.0128c2.3846 0.0282 4.3404-1.882 4.3687-4.2665s-1.882-4.3404-4.2665-4.3687c-2.3846-0.0281-4.3404 1.882-4.3687 4.2666-6e-3 0.5102 0.0784 1.0174 0.2495 1.4982l-9.92 1.2107L15.8037 0.32C15.6052 0.1175 15.3343 23e-4 15.0507 0c-0.28 15e-4-0.5482 0.1129-0.7467 0.3104l-3.0251 3.008c-0.4164 0.4165-0.4164 1.0917 0 1.5083l1.6278 1.6512c-6.3062 11.5958-4.2579 25.9556 5.0389 35.3258 0.0853 0.0816 0.1843 0.1476 0.2923 0.1952-0.0672 0.361-0.1023 0.7272-0.1046 1.0944v12.3734h-12.8C2.3893 55.4701 35e-4 57.856 0 60.8v2.1333C0 63.5224 0.4776 64 1.0667 64h49.0666c0.5891 0 1.0667-0.4776 1.0667-1.0667V60.8c-35e-4-2.944-2.3893-5.3299-5.3333-5.3333h-12.8v-5.4838c2.0052 0.4206 4.0482 0.635 6.097 0.64 4.9163-53e-4 9.7543-1.2309 14.08-3.5669l1.6363 1.6459c0.1985 0.2025 0.4695 0.3177 0.7531 0.32 0.28-15e-4 0.5481-0.113 0.7466-0.3104l3.0251-3.008c0.4164-0.4166 0.4164-1.0918 0-1.5083zM44.4181 12.4661c0.8354-0.8309 2.1862-0.8272 3.017 82e-4 0.8309 0.8353 0.8272 2.1861-82e-4 3.0169-0.3998 0.3977-0.9409 0.6209-1.5049 0.6208h-64e-4c-1.1781-61e-4-2.1284-0.9661-2.1223-2.1444 3e-3-0.564 0.2291-1.1037 0.629-1.5015zM41.9072 19.4752l-1.1968 5.8912-2.3509-2.3648zM40.6955 17.6715l-3.84 3.8176-2.9707-2.9867zM45.8667 57.6c1.7673 0 3.2 1.4327 3.2 3.2v1.0667H2.1333l0-1.0667c0-1.7673 1.4327-3.2 3.2-3.2zM30.9333 53.3333v2.1334H20.2667v-2.1334zM20.2667 51.2v-8.1067c0-2.5877 2.3925-4.6933 5.3333-4.6933s5.3333 2.1056 5.3333 4.6933V51.2zM33.0667 47.808v-4.7147c0-3.7642-3.3494-6.8266-7.4667-6.8266-2.6621-0.0408-5.1515 1.3142-6.5621 3.5722-8.1155-8.5476-9.943-21.2904-4.5572-31.7742l37.2036 37.4169c-5.7448 2.9224-12.3303 3.7452-18.6176 2.3264zM55.6448 46.4405 15.04 5.5915 13.5307 4.0789 15.04 2.5749 30.9099 18.5344c74e-4 0 0.0117 0.0139 0.0192 0.0192l26.2293 26.3829z" />
            <path
                d="M25.6096 40.5333H25.6c-1.7673-26e-4-3.2021 1.4279-3.2048 3.1952-27e-4 1.7674 1.4279 3.2022 3.1952 3.2048H25.6c1.7673 27e-4 3.2021-1.4278 3.2048-3.1952 27e-4-1.7673-1.4279-3.2021-3.1952-3.2048zM26.3563 44.4896c-0.2008 0.1997-0.473 0.3115-0.7563 0.3104-0.5891-31e-4-1.0641-0.4831-1.0611-1.0721 15e-4-0.282 0.1146-0.5519 0.3144-0.7508 0.1986-0.1975 0.4667-0.309 0.7467-0.3104 0.5891 3e-3 1.0641 0.483 1.0611 1.0721-15e-4 0.282-0.1146 0.5519-0.3144 0.7508z" />
        </symbol>
        <symbol id="feature-icon-4" viewBox="0 0 64 57" fill="currentColor">
            <path
                d="M63.9481 5.2908c-0.1259-0.3851-0.4587-0.6666-0.8608-0.7254l-3.8208-0.5558-1.7099-3.4625c-0.3584-0.7296-1.5541-0.7296-1.9125 0l-1.7099 3.4624-3.821 0.5558c-0.4021 0.0587-0.7348 0.3393-0.8618 0.7254-0.1248 0.3862-0.0214 0.8107 0.2698 1.0934l2.766 2.6956-0.6528 3.8059c-0.0683 0.4 0.096 0.8043 0.4235 1.0433 0.3318 0.2411 0.7648 0.2708 1.1243 0.081l3.4176-1.7974 3.4177 1.7974c0.1558 0.0821 0.3275 0.1226 0.4971 0.1226 0.2208 0 0.4417-0.0683 0.6273-0.2038 0.3285-0.2388 0.4928-0.6432 0.4235-1.0432l-0.6527-3.806 2.7659-2.6955c0.2897-0.2838 0.3944-0.7073 0.2695-1.0934zM59.0223 7.9447c-0.2507 0.2443-0.3659 0.5984-0.3062 0.944l0.3819 2.2283-2.001-1.0518c-0.1558-0.0821-0.3264-0.1226-0.4972-0.1226-0.1706 0-0.3402 0.0405-0.4971 0.1226l-2.0011 1.0518 0.3818-2.2283c0.0598-0.3456-0.0555-0.6986-0.3061-0.944L52.557 6.3661l2.2379-0.3254c0.3478-0.0501 0.6476-0.2688 0.8033-0.5835l1.0005-2.0267 1.0005 2.0267c0.1558 0.3146 0.4555 0.5334 0.8033 0.5835l2.2379 0.3254z" />
            <path d="M52.2669 37.2871h-2.1334v2.1334h2.1334z" />
            <path d="M52.2669 41.5539h-2.1334v2.1334h2.1334z" />
            <path d="M54.4004 39.4205h-2.1335v2.1334h2.1335z" />
            <path d="M50.1335 39.4205h-2.1333v2.1334h2.1333z" />
            <path d="M44.8001 49.0206h-2.1334v2.1334h2.1334z" />
            <path d="M44.8001 53.2873h-2.1334v2.1334h2.1334z" />
            <path d="M46.9336 51.1541l-2.1335-1e-4v2.1333l2.1335 2e-4z" />
            <path d="M42.6667 51.154l-2.1334 1e-4v2.1334l2.1334-2e-4z" />
            <path d="M32 44.754h-2.1334v2.1334H32z" />
            <path d="M32 49.0206h-2.1334v2.1334H32z" />
            <path d="M34.1334 46.8872 32 46.8874v2.1332h2.1334z" />
            <path d="M29.8666 46.8874l-2.1334-2e-4v2.1334h2.1334z" />
            <path d="M11.733 8.4866l-2.1334 0 0 2.1334h2.1334z" />
            <path d="M11.733 12.7534H9.5996l0 2.1334h2.1334z" />
            <path d="M13.8663 10.6201 11.733 10.62v2.1334l2.1333 1e-4z" />
            <path d="M9.5996 10.62l-2.1334 1e-4 0 2.1334 2.1334-1e-4z" />
            <path
                d="M49.4295 24.5616c-0.5749-0.7755-1.4186-1.2747-2.3765-1.4092-0.9622-0.1365-1.9116 0.1163-2.6796 0.704l-2.5035 1.919-11e-4 11e-4-3.7954 2.8341-2.7157-1.0816c4.8427-2.1728 8.2273-7.0166 8.2273-12.6402 0-7.646-6.2454-13.8668-13.9223-13.8668S15.7405 7.2428 15.7405 14.8888c0 2.7713 0.8287 5.3483 2.24 7.5169l-5.5276-0.048c-32e-4 0-64e-4 0-96e-4 0-0.0171 0-0.0309 85e-4-0.0469 96e-4-0.1056 43e-4-0.2091 0.0256-0.3104 0.0619-0.0256 96e-4-0.0522 0.015-0.0767 0.0266-0.0128 54e-4-0.0256 64e-4-0.0384 0.0128l-6.4662 3.1925c-11e-4 0-21e-4 0-21e-4 1e-3l-3.7868 1.821c-0.0417 0.0182-0.0843 0.0427-0.1259 0.0704-1.5094 1.0048-2.0236 2.9782-1.1968 4.591 0.4405 0.8576 1.1904 1.4891 2.112 1.7781 0.3553 0.1109 0.7179 0.1654 1.0784 0.1654 0.5793 0 1.1532-0.1419 1.6789-0.4224l2.7756-1.4763 4.528-2.3381 2.7137-0.016L4.3963 40.6663c-1e-3 12e-4-21e-4 12e-4-33e-4 22e-4l-2.6774 2.6666c-0.6325 0.6294-0.9802 1.4645-0.9802 2.3553 0 0.8896 0.3477 1.7269 0.9802 2.3574 0.6497 0.6464 1.5041 0.9707 2.3584 0.9707 0.8556 0 1.7088-0.3243 2.3606-0.9707l2.6283-2.6176 3.4816-2.5996 1.8017 1.7942-3.5233 3.5083c-1e-3 11e-4-21e-4 11e-4-33e-4 21e-4l-2.6774 2.6667c-0.6325 0.6293-0.9802 1.4645-0.9802 2.3552 0 0.8897 0.3477 1.7269 0.9802 2.3575 0.6497 0.6463 1.5052 0.9706 2.3596 0.9706 0.8544 0 1.7099-0.3243 2.3605-0.9706l6.9632-6.9334c12e-4-11e-4 12e-4-21e-4 22e-4-32e-4l2.0192-2.0001-75e-4-75e-4c0.0128-0.0127 0.0309-0.0171 0.0438-0.0309l10.3319-11.3164 6.942 0.9878c0.0501 75e-4 0.1002 0.0106 0.1504 0.0106 0.1291 0 0.2538-0.0309 0.3744-0.0767 0.0352-0.0128 0.0661-0.0299 0.0992-0.0469 0.0384-0.0193 0.0789-0.0299 0.1153-0.0544l6.4267-4.2667c0.0235-0.016 0.0362-0.0416 0.0586-0.0586 0.0256-0.0203 0.0576-0.0288 0.081-0.0513l2.5429-2.3819c1.3232-1.2397 1.5055-3.2706 0.4239-4.7234zM4.2608 31.7829c-0.3466 0.1857-0.7403 0.2229-1.1168 0.1035-0.3734-0.1162-0.6762-0.3712-0.8534-0.7157-0.3221-0.6273-0.1355-1.391 0.4288-1.8038l2.6273-1.264 0.8981 2.625zM11.255 28.1275l-3.0965 1.6-0.8778-2.5665 4.0535-2.0012zM41.4539 14.8867c0 1.8368-0.4384 3.5692-1.1979 5.1189l-8.3628-3.7984c-0.0875-1.1466-0.6826-2.1504-1.5765-2.7755l2.928-9.7207c4.7554 1.5127 8.2092 5.949 8.2092 11.1757zM17.876 14.8867c0-6.4695 5.2886-11.7336 11.7889-11.7336 0.5057 0 1.0006 0.0427 1.4902 0.1045L28.291 12.765c-0.0383-11e-4-0.0746-0.0117-0.1141-0.0117-2.0651 0-3.7452 1.6746-3.7452 3.7334 0 2.0587 1.6801 3.7334 3.7452 3.7334 1.3888 0 2.5888-0.7668 3.2363-1.8891l7.7249 3.5094c-2.1494 2.8928-5.5895 4.7798-9.4733 4.7798-6.5002 0-11.7888-5.264-11.7888-11.7335zM29.7887 16.4867c0 0.8821-0.7233 1.6-1.6118 1.6s-1.6118-0.7179-1.6118-1.6 0.7233-1.6 1.6118-1.6 1.6118 0.7179 1.6118 1.6zM4.9297 46.5352c-0.4725 0.4682-1.2374 0.4672-1.7088 11e-4-0.2273-0.2273-0.352-0.5269-0.352-0.8459 0-0.3179 0.1248-0.6176 0.352-0.8426l1.9242-1.9169 1.7024 1.695zM11.3574 54.002c-0.4725 0.4683-1.2384 0.4694-1.7099 12e-4-0.2273-0.2273-0.352-0.5269-0.352-0.8459 0-0.3179 0.1247-0.6177 0.352-0.8427l1.9254-1.9179 1.7035 1.6951zM18.3208 47.0643c-12e-4 1e-3-22e-4 1e-3-33e-4 21e-4l-3.5297 3.5201-1.7035-1.695 3.5264-3.5105c0 0 0 0 0-1e-3 12e-4-11e-4 22e-4-11e-4 33e-4-21e-4 0.08-0.08 0.1301-0.176 0.1792-0.2709 0.0139-0.0277 0.0405-0.0512 0.0523-0.08 0.0331-0.0821 0.0384-0.1706 0.0512-0.2571 64e-4-0.0491 0.0278-0.0949 0.0278-0.1451 0-0.0715-0.0256-0.1408-0.0405-0.2113-0.0128-0.064-0.0128-0.1291-0.0374-0.1909-0.0405-0.1002-0.1099-0.1887-0.1824-0.2752-0.0202-0.0235-0.0277-0.0534-0.0501-0.0758 0 0 0 0-11e-4 0-11e-4-1e-3-11e-4-32e-4-21e-4-42e-4l-3.214-3.2001c-0.0341-0.0341-0.0778-0.048-0.1162-0.0767-0.0565-0.0438-0.1109-0.0843-0.1739-0.1153-0.0607-0.0299-0.1226-0.048-0.1866-0.0651-0.0683-0.0193-0.1344-0.0341-0.2059-0.0395-0.0651-42e-4-0.1259 21e-4-0.1909 96e-4-0.0715 85e-4-0.1386 0.0182-0.208 0.0405-0.0672 0.0214-0.1269 0.0544-0.1887 0.0897-0.0395 0.0223-0.0843 0.0298-0.1217 0.0576l-3.5466 2.6475-1.8017-1.7941 4.798-4.7724 8.7212 8.5773zM31.9584 33.031c-0.0309-43e-4-0.0598 75e-4-0.0907 53e-4-0.0779-42e-4-0.1525 12e-4-0.2304 0.0139-0.0607 0.0106-0.1183 0.0224-0.176 0.0426-0.0682 0.0235-0.1301 0.0555-0.1931 0.0939-0.0597 0.0363-0.1141 0.0746-0.1664 0.1226-0.0256 0.0224-0.0565 0.0332-0.08 0.0587l-9.3965 10.2914-8.6561-8.5133 5.6662-5.6363c0.4171-0.416 0.4192-1.0913 32e-4-1.5094-0.2101-0.2101-0.4863-0.3136-0.7626-0.3125l-4.4374 0.0256 0.0555-3.2149 6.2081 0.0534c2.5301 2.5877 6.0587 4.2017 9.9627 4.2017 0.8747 0 1.7281-0.0907 2.559-0.2454 0.08 0.064 0.1588 0.1291 0.2592 0.1696l4.8193 1.92 0.6613 3.2874zM40.0406 33.3872l-0.6261-3.1158 2.8928-2.16 1.8934 2.513zM47.5478 27.7253l-1.6757 1.5701-1.8624-2.4725 1.6629-1.2747c0.3103-0.2389 0.7019-0.336 1.0859-0.2859 0.3861 0.0544 0.7275 0.256 0.96 0.5686 0.4331 0.5835 0.3595 1.3973-0.1707 1.8944z" />
            <path
                d="M27.2041 33.3308l-4.2859-4.2667c-0.4149-0.4149-1.0892-0.4149-1.5052 0l-4.2848 4.2667c-0.2005 0.2016-0.3136 0.4725-0.3136 0.7562 0 0.2838 0.112 0.5558 0.3136 0.7563L21.413 39.11c0.208 0.2069 0.4812 0.3104 0.7532 0.3104s0.545-0.1035 0.752-0.3104l4.2859-4.2667c0.2005-0.2005 0.3146-0.4725 0.3146-0.7563 0-0.2837-0.1131-0.5557-0.3146-0.7562zM22.1662 36.8487 19.3927 34.087l2.7735-2.7616 2.7744 2.7616z" />
            <path
                d="M34.3285 6.3842 33.8132 8.4558c0.1419 0.0352 3.4753 0.9035 3.4753 4.2976h2.1334c-1e-4-4.0343-3.3313-5.9308-5.0934-6.3692z" />
            <path d="M39.422 14.8867h-2.1334v2.1334h2.1334z" />
        </symbol>
        <symbol id="feature-icon-3" viewBox="0 0 64 50" fill="currentColor">
            <path d="M29.851 22.4329h2.1323v9.5949H29.851z" />
            <path d="M38.3799 26.6973h2.1322v5.3305h-2.1322z" />
            <path d="M21.3222 29.8956h2.1322v2.1322h-2.1322z" />
            <path d="M14.9255 28.8295h2.1322v3.1983h-2.1322z" />
            <path
                d="M3.1983 49.0856h51.1732c1.7663 0 3.1984-1.4321 3.1984-3.1983v-4.2645c0-1.7662-1.4321-3.1983-3.1984-3.1983h-1.0661V11.8379l6.0557-5.7366c1.4055 0.6929 3.1067 0.2723 4.0265-0.9974 0.9204-1.2691 0.7913-3.0166-0.305-4.1369s-2.8402-1.2873-4.1296-0.3956c-1.2889 0.8922-1.747 2.5835-1.0849 4.0042l-4.5627 4.3253V6.4412c0-1.7662-1.432-3.1983-3.1983-3.1983l-42.6443 0c-1.7663 0-3.1984 1.4321-3.1984 3.1983l0 31.9833H3.1983C1.4321 38.4245 0 39.8566 0 41.6228v4.2645c0 1.7662 1.4321 3.1983 3.1983 3.1983zM60.7682 2.1768c0.5887 0 1.0661 0.4774 1.0661 1.0661S61.3569 4.309 60.7682 4.309c-0.5888 0-1.0661-0.4773-1.0661-1.0661s0.4773-1.0661 1.0661-1.0661zM6.3967 6.4412c0-0.5887 0.4773-1.0661 1.0661-1.0661l42.6443 0c0.5887 0 1.0661 0.4774 1.0661 1.0661v4.4774l-2.1322 2.026V8.5735c0-0.5888-0.4774-1.0662-1.0661-1.0662L9.595 7.5074c-0.5888-1e-4-1.0661 0.4773-1.0661 1.066l0 26.6527c0 0.5887 0.4773 1.0661 1.0661 1.0661h38.3799c0.5887 0 1.0661-0.4774 1.0661-1.0661V15.8774l2.1322-2.0203v24.5674H6.3967zM15.9916 20.3006c-1.4424-41e-4-2.709 0.9568-3.0926 2.3473-0.3837 1.3904 0.2103 2.8651 1.4508 3.6012 1.24 0.7361 2.8199 0.5513 3.8563-0.4518l3.7059 1.8594c0.4305 0.2155 0.9526 0.1145 1.2727-0.2452l7.8777-8.8625 7.7438 5.8027c0.4154 0.3113 0.9954 0.2779 1.3722-0.0786l6.7304-6.3754v16.2624H10.6611V9.6396l36.2477 0v5.3206l-7.543 7.1432-7.8089-5.8543c-0.4435-0.3321-1.0677-0.2696-1.4362 0.1442l-7.9859 8.9854-2.9855-1.4929c0.0219-0.1281 0.0354-0.2572 0.0407-0.3868 0-1.7663-1.4321-3.1984-3.1984-3.1984zM17.0577 23.499c0 0.5887-0.4773 1.0661-1.0661 1.0661-0.5887 0-1.0661-0.4774-1.0661-1.0661 0-0.5888 0.4774-1.0661 1.0661-1.0661 0.5888 0 1.0661 0.4773 1.0661 1.0661zM23.4544 40.5567h10.6611v1.0661c0 0.5888-0.4774 1.0661-1.0661 1.0661h-8.5289c-0.5888 0-1.0661-0.4773-1.0661-1.0661zM2.1322 41.6228c0-0.5887 0.4774-1.0661 1.0661-1.0661h18.1239v1.0661c0 1.7663 1.432 3.1983 3.1983 3.1983h8.5289c1.7662 0 3.1983-1.432 3.1983-3.1983v-1.0661h18.1238c0.5888 0 1.0661 0.4774 1.0661 1.0661v4.2645c0 0.5887-0.4773 1.0661-1.0661 1.0661H3.1983c-0.5887 0-1.0661-0.4774-1.0661-1.0661z" />
        </symbol>
        <symbol id="feature-icon-2" viewBox="0 0 62 64" fill="currentColor">
            <path
                d="M61.2183 30.6025C61.2149 13.6978 47.5078-34e-4 30.6025 0 13.6978 34e-4-34e-4 13.7109 0 30.6157 29e-4 43.9316 8.6138 55.7178 21.2988 59.7681c0.1211 0.0381 0.2471 0.0576 0.3736 0.0571 0.2412-5e-4 0.4775-0.0649 0.685-0.1875 0.27-0.1597 0.4717-0.4136 0.5664-0.7129l7.73-24.5c2.1133-0.0107 3.8174-1.7329 3.8062-3.8457-0.0108-2.1133-1.7325-3.8174-3.8457-3.8066-0.5684 24e-4-1.1294 0.1333-1.6402 0.3828L18.7622 16.9419c-0.5068-0.4893-1.314-0.4751-1.8032 0.0312-0.4776 0.4947-0.4776 1.2779 0 1.7725l10.2065 10.2183c-0.7832 1.5986-0.3354 3.5283 1.0728 4.6181L20.873 56.9277C6.3174 51.5659-1.1357 35.4199 4.2261 20.8643 9.5879 6.3086 25.7339-1.1445 40.2896 4.2173 54.8452 9.5791 62.2983 25.7256 56.9365 40.2808c-2.6196 7.1113-8.0019 12.8623-14.9243 15.9467l-0.7959-3.7485c-0.1455-0.689-0.8227-1.1294-1.5117-0.9834-0.2173 0.0464-0.419 0.1485-0.585 0.2964l-7.6738 6.8511c-0.5264 0.4682-0.5732 1.2744-0.1045 1.8008 0.1524 0.1709 0.3477 0.2978 0.5664 0.3676l9.7974 3.127c0.6704 0.2153 1.3887-0.1533 1.604-0.8242 0.0683-0.2119 0.0796-0.4375 0.0337-0.6553l-0.7822-3.6782c11.3286-4.7759 18.684-15.8843 18.6577-28.1783zM30.6094 29.3272c0.7041 0 1.2754 0.5712 1.2754 1.2753 0 0.7046-0.5713 1.2754-1.2754 1.2754-0.7046 0-1.2754-0.5708-1.2754-1.2754 0-0.7041 0.5708-1.2753 1.2754-1.2753zM34.8101 59.0552l4.3681-3.8965 1.2056 5.6807z" />
            <path
                d="M29.334 6.3701v2.5508c0 0.7046 0.5708 1.2754 1.2754 1.2754 0.7041 0 1.2753-0.5708 1.2753-1.2754V6.3701c0-0.7041-0.5712-1.2754-1.2753-1.2754-0.7046 0-1.2754 0.5713-1.2754 1.2754z" />
            <path
                d="M6.377 29.3271c-0.7046 0-1.2754 0.5713-1.2754 1.2754 0 0.7046 0.5708 1.2754 1.2753 1.2754h2.5507c0.7046 0 1.2754-0.5708 1.2754-1.2754 0-0.7041-0.5708-1.2754-1.2754-1.2754z" />
            <path
                d="M54.8412 31.8779c0.7046 0 1.2754-0.5708 1.2754-1.2754 0-0.7041-0.5708-1.2754-1.2754-1.2754h-2.5507c-0.7041 0-1.2754 0.5713-1.2754 1.2754 0 0.7046 0.5713 1.2754 1.2754 1.2754z" />
        </symbol>
        <symbol id="instagram" viewBox="0 0 16 16" fill="currentColor">
            <path
                d="M15.9562 4.704c-0.0375-0.8501-0.1749-1.4346-0.3719-1.941-0.2031-0.5376-0.5157-1.0189-0.9252-1.419-0.4001-0.4063-0.8846-0.7221-1.4159-0.922-0.5094-0.197-1.0908-0.3345-1.941-0.3719C10.4458 94e-4 10.1739 0 8.0016 0 5.8293 0 5.5573 94e-4 4.704 0.0469 3.8539 0.0844 3.2694 0.222 2.7631 0.4188 2.2254 0.6219 1.7441 0.9345 1.344 1.344 0.9377 1.7441 0.6221 2.2286 0.422 2.7599 0.225 3.2694 0.0875 3.8507 0.0501 4.7009 94e-4 5.5574 0 5.8293 0 8.0016c0 2.1723 94e-4 2.4442 0.0469 3.2975 0.0375 0.8501 0.1751 1.4346 0.372 1.941 0.2032 0.5376 0.5188 1.0189 0.9251 1.419 0.4001 0.4063 0.8846 0.7221 1.4159 0.9221 0.5095 0.1969 1.0908 0.3344 1.9411 0.3719C5.5542 15.9907 5.8262 16 7.9985 16s2.4442-93e-4 3.2975-0.0469c0.8502-0.0375 1.4346-0.175 1.9409-0.3719 1.0753-0.4158 1.9255-1.2659 2.3412-2.3411 0.1968-0.5095 0.3344-1.0909 0.3719-1.941 0.0375-0.8533 0.0469-1.1252 0.0469-3.2975 0-2.1723-32e-4-2.4442-0.0407-3.2976zM14.5154 11.2366c-0.0344 0.7814-0.1657 1.2033-0.2751 1.4846-0.2688 0.6971-0.822 1.2503-1.5191 1.5191-0.2813 0.1094-0.7063 0.2407-1.4846 0.275-0.844 0.0376-1.0971 0.0469-3.2319 0.0469-2.1348 0-2.3911-93e-4-3.2319-0.0469-0.7814-0.0343-1.2034-0.1656-1.4847-0.275-0.3468-0.1282-0.6626-0.3313-0.9189-0.597-0.2656-0.2595-0.4688-0.572-0.597-0.9189-0.1094-0.2813-0.2407-0.7064-0.275-1.4847-0.0376-0.8439-0.0468-1.0971-0.0468-3.2319 0-2.1348 92e-4-2.3911 0.0468-3.2318 0.0343-0.7814 0.1656-1.2034 0.275-1.4847 0.1282-0.347 0.3314-0.6626 0.6002-0.919 0.2593-0.2657 0.5719-0.4688 0.9189-0.5969C3.5726 1.666 3.9977 1.5347 4.776 1.5003 5.6199 1.4628 5.8731 1.4534 8.0078 1.4534c2.138 0 2.3911 94e-4 3.2319 0.0469 0.7814 0.0344 1.2034 0.1657 1.4847 0.2751 0.3469 0.1281 0.6626 0.3312 0.9189 0.5969 0.2657 0.2594 0.4688 0.572 0.597 0.919 0.1094 0.2813 0.2407 0.7063 0.2751 1.4847 0.0375 0.8439 0.0469 1.097 0.0469 3.2318 0 2.1348-94e-4 2.3849-0.0469 3.2288z" />
            <path
                d="M8.0016 3.8914c-2.2691 0-4.1102 1.8409-4.1102 4.1101 0 2.2693 1.8411 4.1102 4.1102 4.1102 2.2692 0 4.1101-1.8409 4.1101-4.1102 0-2.2692-1.8409-4.1101-4.1101-4.1101zM8.0016 10.6677c-1.4721 0-2.6662-1.194-2.6662-2.6662s1.1941-2.6661 2.6662-2.6661c1.4722 0 2.6661 1.1939 2.6661 2.6661s-1.1939 2.6662-2.6661 2.6662z" />
            <path
                d="M13.2339 3.7289c0 0.5299-0.4296 0.9595-0.9596 0.9595-0.5299 0-0.9596-0.4296-0.9596-0.9595 0-0.53 0.4297-0.9596 0.9596-0.9596 0.53 0 0.9596 0.4296 0.9596 0.9596z" />
        </symbol>
        <symbol id="linkedin" viewBox="0 0 16 16" fill="currentColor">
            <path
                d="M15.996 16l4e-3-6e-4v-5.868c0-2.8707-0.618-5.082-3.974-5.082-1.6133 0-2.696 0.8853-3.138 1.7246l-0.0467 0 0-1.4566-3.182 0 0 10.682h3.3134l0-5.2894c0-1.3926 0.264-2.7393 1.9886-2.7393 1.6994 0 1.7247 1.5893 1.7247 2.8287V16z" />
            <path d="M0.264 5.318l3.3173 0 0 10.682H0.264z" />
            <path
                d="M1.9213 0C0.8607 0 0 0.8607 0 1.9213s0.8607 1.9394 1.9213 1.9394 1.9214-0.8787 1.9214-1.9394C3.842 0.8607 2.9813 0 1.9213 0z" />
        </symbol>
        <symbol id="facebook" viewBox="0 0 8 16" fill="none">
            <path fill="currentColor"
                d="M6.54 2.6567l1.4607 0 0-2.544C7.7487 0.078 6.882 0 5.8727 0 3.7667 0 2.324 1.3247 2.324 3.7593V6H0v2.844h2.324V16h2.8493l0-7.1553 2.23 0 0.354-2.844-2.5846 0 0-1.9594c6e-4-0.822 0.222-1.3846 1.3673-1.3846z" />
        </symbol>
        <symbol id="x" viewBox="0 0 16 15" fill="none">
            <path fill="currentColor"
                d="M12.6 0h2.454l-5.36 6.142L16 14.5h-4.937L7.196 9.43 2.771 14.5H0.316l5.733-6.57L0 0h5.063l3.495 4.633zM11.74 13.028h1.36L4.323 1.395H2.865z" />
        </symbol>
        <symbol id="close-icon" viewBox="0 0 8 8" fill="none">
            <path
                d="M8 0.805714L7.19429 0L4 3.19429L0.805714 0L0 0.805714L3.19429 4L0 7.19429L0.805714 8L4 4.80571L7.19429 8L8 7.19429L4.80571 4L8 0.805714Z"
                fill="currentColor" />
        </symbol>
        <symbol id="custom-arrow" viewBox="0 0 10 8" fill="none">
            <path
                d="M8.44558 0.255056C8.61838 0.089653 8.84834 -0.00178848 9.08693 2.65108e-05C9.32551 0.0018415 9.55407 0.0967713 9.72436 0.264784C9.89466 0.432797 9.99337 0.660752 9.99968 0.900549C10.006 1.14034 9.91939 1.37323 9.75816 1.55005L4.86357 7.70436C4.77941 7.79551 4.67782 7.86865 4.5649 7.91942C4.45198 7.97018 4.33003 7.99754 4.20636 7.99984C4.08268 8.00214 3.95981 7.97935 3.8451 7.93282C3.73038 7.88629 3.62618 7.81698 3.53872 7.72903L0.292827 4.46564C0.202435 4.38096 0.129933 4.27884 0.0796475 4.16537C0.0293621 4.05191 0.00232279 3.92942 0.000143182 3.80522C-0.00203643 3.68102 0.0206883 3.55765 0.0669613 3.44248C0.113234 3.3273 0.182108 3.22267 0.269473 3.13483C0.356838 3.047 0.460905 2.97775 0.575465 2.93123C0.690026 2.88471 0.812734 2.86186 0.936267 2.86405C1.0598 2.86624 1.18163 2.89343 1.29449 2.94398C1.40734 2.99454 1.50892 3.06743 1.59315 3.15831L4.16189 5.73967L8.42227 0.28219C8.42994 0.272694 8.43813 0.263635 8.4468 0.255056H8.44558Z"
                fill="currentColor" />
        </symbol>

        <symbol id="human" viewBox="0 0 18 24" fill="none">
            <path
                d="M9 12C10.6575 12 12 10.6575 12 9C12 7.3425 10.6575 6 9 6C7.3425 6 6 7.3425 6 9C6 10.6575 7.3425 12 9 12ZM9 13.5C6.9975 13.5 3 14.505 3 16.5V17.25C3 17.6625 3.3375 18 3.75 18H14.25C14.6625 18 15 17.6625 15 17.25V16.5C15 14.505 11.0025 13.5 9 13.5Z"
                fill="currentColor" />
        </symbol>

        <symbol id="phone" viewBox="0 0 18 24" fill="none">
            <path
                d="M14.2263 14.3651L12.3881 14.1552C11.9467 14.1046 11.5125 14.2566 11.2013 14.5677L9.86971 15.8993C7.8217 14.8572 6.14276 13.1855 5.10067 11.1303L6.43947 9.79144C6.75065 9.48025 6.90263 9.04605 6.85197 8.6046L6.6421 6.78092C6.55526 6.05 5.94013 5.5 5.20198 5.5H3.95002C3.13226 5.5 2.452 6.18026 2.50266 6.99802C2.88621 13.1783 7.82894 18.1138 14.0019 18.4973C14.8197 18.548 15.4999 17.8677 15.4999 17.05V15.798C15.5072 15.0671 14.9572 14.452 14.2263 14.3651Z"
                fill="currentColor" />
        </symbol>

        <symbol id="email" viewBox="0 0 18 24" fill="none">
            <path
                d="M15 6H3C2.175 6 1.5075 6.675 1.5075 7.5L1.5 16.5C1.5 17.325 2.175 18 3 18H15C15.825 18 16.5 17.325 16.5 16.5V7.5C16.5 6.675 15.825 6 15 6ZM14.7 9.1875L9.3975 12.5025C9.1575 12.6525 8.8425 12.6525 8.6025 12.5025L3.3 9.1875C3.1125 9.0675 3 8.865 3 8.6475C3 8.145 3.5475 7.845 3.975 8.1075L9 11.25L14.025 8.1075C14.4525 7.845 15 8.145 15 8.6475C15 8.865 14.8875 9.0675 14.7 9.1875Z"
                fill="currentColor" />
        </symbol>
        <symbol id="telegram" viewBox="0 0 24 24" fill="none">
            <path
                d="M24 2L0 13.25L7.66994 15.6172L19.5 6.375L10.5017 16.4913L10.509 16.4936L10.5 16.4913V22L14.8013 17.8183L20.2501 19.5L24 2Z"
                fill="currentColor" />
        </symbol>
    </defs>
</svg>